<mxfile host="app.diagrams.net" modified="2024-01-11T07:38:16.600Z" agent="Mozilla/5.0 (Windows NT 10.0; Win64; x64) AppleWebKit/537.36 (KHTML, like Gecko) Chrome/120.0.0.0 Safari/537.36 Edg/120.0.0.0" etag="1YS1CyQGibOGNQRsI1aR" version="22.1.17" type="github">
  <diagram name="第 1 页" id="aFovmZDefZpcK3rY6MG5">
    <mxGraphModel dx="1797" dy="808" grid="1" gridSize="10" guides="1" tooltips="1" connect="1" arrows="1" fold="1" page="1" pageScale="1" pageWidth="827" pageHeight="1169" math="0" shadow="0">
      <root>
        <mxCell id="0" />
        <mxCell id="1" parent="0" />
        <mxCell id="Ch-OCV6Q0t6kAxiltGTW-193" value="&lt;font style=&quot;font-size: 18px;&quot;&gt;视图&lt;/font&gt;" style="text;html=1;strokeColor=none;fillColor=none;align=center;verticalAlign=middle;whiteSpace=wrap;rounded=0;" vertex="1" parent="1">
          <mxGeometry x="320" y="1040" width="60" height="30" as="geometry" />
        </mxCell>
        <mxCell id="Ch-OCV6Q0t6kAxiltGTW-194" value="&lt;font style=&quot;font-size: 18px;&quot;&gt;数据模型&lt;/font&gt;" style="text;html=1;strokeColor=none;fillColor=none;align=center;verticalAlign=middle;whiteSpace=wrap;rounded=0;" vertex="1" parent="1">
          <mxGeometry x="1000" y="1040" width="120" height="30" as="geometry" />
        </mxCell>
        <mxCell id="Ch-OCV6Q0t6kAxiltGTW-195" value="&lt;font style=&quot;font-size: 18px;&quot;&gt;控制器&lt;/font&gt;" style="text;html=1;strokeColor=none;fillColor=none;align=center;verticalAlign=middle;whiteSpace=wrap;rounded=0;" vertex="1" parent="1">
          <mxGeometry x="660" y="690" width="60" height="30" as="geometry" />
        </mxCell>
        <mxCell id="Ch-OCV6Q0t6kAxiltGTW-197" value="FCStd模型文件&lt;br&gt;HNF模型文件" style="shape=datastore;whiteSpace=wrap;html=1;" vertex="1" parent="1">
          <mxGeometry x="1300" y="1160" width="100" height="90" as="geometry" />
        </mxCell>
        <mxCell id="Ch-OCV6Q0t6kAxiltGTW-198" value="&lt;font style=&quot;font-size: 18px;&quot;&gt;模型库&lt;/font&gt;" style="text;html=1;align=center;verticalAlign=middle;resizable=0;points=[];autosize=1;strokeColor=none;fillColor=none;" vertex="1" parent="1">
          <mxGeometry x="1300" y="1110" width="80" height="40" as="geometry" />
        </mxCell>
        <mxCell id="Ch-OCV6Q0t6kAxiltGTW-199" value="&lt;font style=&quot;font-size: 14px;&quot;&gt;更新视图&lt;/font&gt;" style="text;html=1;align=center;verticalAlign=middle;resizable=0;points=[];autosize=1;strokeColor=none;fillColor=none;" vertex="1" parent="1">
          <mxGeometry x="570" y="1030" width="80" height="30" as="geometry" />
        </mxCell>
        <mxCell id="Ch-OCV6Q0t6kAxiltGTW-205" value="&lt;font style=&quot;font-size: 14px;&quot;&gt;信号与槽机制&lt;/font&gt;" style="text;html=1;align=center;verticalAlign=middle;resizable=0;points=[];autosize=1;strokeColor=none;fillColor=none;" vertex="1" parent="1">
          <mxGeometry x="390" y="980" width="110" height="30" as="geometry" />
        </mxCell>
        <mxCell id="Ch-OCV6Q0t6kAxiltGTW-206" value="&lt;font style=&quot;font-size: 14px;&quot;&gt;更新视图&lt;/font&gt;" style="text;html=1;align=center;verticalAlign=middle;resizable=0;points=[];autosize=1;strokeColor=none;fillColor=none;" vertex="1" parent="1">
          <mxGeometry x="665" y="1160" width="80" height="30" as="geometry" />
        </mxCell>
        <mxCell id="Ch-OCV6Q0t6kAxiltGTW-207" value="&lt;font style=&quot;font-size: 14px;&quot;&gt;调用接口&lt;/font&gt;" style="text;html=1;align=center;verticalAlign=middle;resizable=0;points=[];autosize=1;strokeColor=none;fillColor=none;" vertex="1" parent="1">
          <mxGeometry x="890" y="960" width="80" height="30" as="geometry" />
        </mxCell>
        <mxCell id="Ch-OCV6Q0t6kAxiltGTW-208" value="&lt;font style=&quot;font-size: 14px;&quot;&gt;返回数据&lt;/font&gt;" style="text;html=1;align=center;verticalAlign=middle;resizable=0;points=[];autosize=1;strokeColor=none;fillColor=none;" vertex="1" parent="1">
          <mxGeometry x="760" y="1030" width="80" height="30" as="geometry" />
        </mxCell>
        <mxCell id="Ch-OCV6Q0t6kAxiltGTW-216" value="" style="swimlane;startSize=0;" vertex="1" parent="1">
          <mxGeometry x="230" y="1080" width="250" height="220" as="geometry">
            <mxRectangle x="70" y="400" width="50" height="40" as="alternateBounds" />
          </mxGeometry>
        </mxCell>
        <mxCell id="Ch-OCV6Q0t6kAxiltGTW-220" value="&lt;font style=&quot;font-size: 14px;&quot;&gt;显示模型&lt;/font&gt;" style="rounded=0;whiteSpace=wrap;html=1;" vertex="1" parent="Ch-OCV6Q0t6kAxiltGTW-216">
          <mxGeometry x="129" y="10" width="110" height="40" as="geometry" />
        </mxCell>
        <mxCell id="Ch-OCV6Q0t6kAxiltGTW-221" value="&lt;font style=&quot;font-size: 14px;&quot;&gt;显示建模历史&lt;/font&gt;" style="rounded=0;whiteSpace=wrap;html=1;" vertex="1" parent="Ch-OCV6Q0t6kAxiltGTW-216">
          <mxGeometry x="10" y="10" width="110" height="41" as="geometry" />
        </mxCell>
        <mxCell id="Ch-OCV6Q0t6kAxiltGTW-222" value="&lt;font style=&quot;font-size: 14px;&quot;&gt;收集特征参数&lt;/font&gt;" style="rounded=0;whiteSpace=wrap;html=1;" vertex="1" parent="Ch-OCV6Q0t6kAxiltGTW-216">
          <mxGeometry x="10" y="89" width="110" height="40" as="geometry" />
        </mxCell>
        <mxCell id="Ch-OCV6Q0t6kAxiltGTW-229" value="&lt;span style=&quot;font-size: 14px;&quot;&gt;显示特征属性&lt;/span&gt;" style="rounded=0;whiteSpace=wrap;html=1;" vertex="1" parent="Ch-OCV6Q0t6kAxiltGTW-216">
          <mxGeometry x="129" y="89" width="110" height="40" as="geometry" />
        </mxCell>
        <mxCell id="Ch-OCV6Q0t6kAxiltGTW-230" value="&lt;font style=&quot;font-size: 14px;&quot;&gt;输出系统信息&lt;/font&gt;" style="rounded=0;whiteSpace=wrap;html=1;" vertex="1" parent="Ch-OCV6Q0t6kAxiltGTW-216">
          <mxGeometry x="70" y="160" width="110" height="40" as="geometry" />
        </mxCell>
        <mxCell id="Ch-OCV6Q0t6kAxiltGTW-217" value="" style="swimlane;startSize=0;" vertex="1" parent="1">
          <mxGeometry x="925" y="1080" width="230" height="220" as="geometry">
            <mxRectangle x="70" y="400" width="50" height="40" as="alternateBounds" />
          </mxGeometry>
        </mxCell>
        <mxCell id="Ch-OCV6Q0t6kAxiltGTW-226" value="&lt;font style=&quot;font-size: 14px;&quot;&gt;存储特征数据&lt;/font&gt;" style="rounded=0;whiteSpace=wrap;html=1;" vertex="1" parent="Ch-OCV6Q0t6kAxiltGTW-217">
          <mxGeometry x="60" y="30" width="110" height="40" as="geometry" />
        </mxCell>
        <mxCell id="Ch-OCV6Q0t6kAxiltGTW-227" value="&lt;span style=&quot;font-size: 14px;&quot;&gt;通知视图改变&lt;/span&gt;" style="rounded=0;whiteSpace=wrap;html=1;" vertex="1" parent="Ch-OCV6Q0t6kAxiltGTW-217">
          <mxGeometry x="60" y="150" width="110" height="40" as="geometry" />
        </mxCell>
        <mxCell id="Ch-OCV6Q0t6kAxiltGTW-228" value="&lt;font style=&quot;font-size: 14px;&quot;&gt;特征数据管理&lt;/font&gt;" style="rounded=0;whiteSpace=wrap;html=1;" vertex="1" parent="Ch-OCV6Q0t6kAxiltGTW-217">
          <mxGeometry x="60" y="89" width="110" height="40" as="geometry" />
        </mxCell>
        <mxCell id="Ch-OCV6Q0t6kAxiltGTW-218" value="" style="swimlane;startSize=0;" vertex="1" parent="1">
          <mxGeometry x="590" y="730" width="230" height="220" as="geometry">
            <mxRectangle x="70" y="400" width="50" height="40" as="alternateBounds" />
          </mxGeometry>
        </mxCell>
        <mxCell id="Ch-OCV6Q0t6kAxiltGTW-223" value="&lt;font style=&quot;font-size: 14px;&quot;&gt;草图设计&lt;/font&gt;" style="rounded=0;whiteSpace=wrap;html=1;" vertex="1" parent="Ch-OCV6Q0t6kAxiltGTW-218">
          <mxGeometry x="60" y="40" width="110" height="40" as="geometry" />
        </mxCell>
        <mxCell id="Ch-OCV6Q0t6kAxiltGTW-224" value="&lt;font style=&quot;font-size: 14px;&quot;&gt;特征建模&lt;/font&gt;" style="rounded=0;whiteSpace=wrap;html=1;" vertex="1" parent="Ch-OCV6Q0t6kAxiltGTW-218">
          <mxGeometry x="60" y="110" width="110" height="40" as="geometry" />
        </mxCell>
        <mxCell id="Ch-OCV6Q0t6kAxiltGTW-225" value="&lt;font style=&quot;font-size: 14px;&quot;&gt;模型数据管理&lt;/font&gt;" style="rounded=0;whiteSpace=wrap;html=1;" vertex="1" parent="Ch-OCV6Q0t6kAxiltGTW-218">
          <mxGeometry x="60" y="170" width="110" height="40" as="geometry" />
        </mxCell>
        <mxCell id="Ch-OCV6Q0t6kAxiltGTW-231" value="" style="endArrow=classic;html=1;rounded=0;exitX=0.75;exitY=0;exitDx=0;exitDy=0;entryX=0.006;entryY=0.893;entryDx=0;entryDy=0;entryPerimeter=0;" edge="1" parent="1" source="Ch-OCV6Q0t6kAxiltGTW-216" target="Ch-OCV6Q0t6kAxiltGTW-218">
          <mxGeometry width="50" height="50" relative="1" as="geometry">
            <mxPoint x="430" y="1000" as="sourcePoint" />
            <mxPoint x="480" y="950" as="targetPoint" />
          </mxGeometry>
        </mxCell>
        <mxCell id="Ch-OCV6Q0t6kAxiltGTW-232" value="" style="endArrow=classic;html=1;rounded=0;exitX=0.25;exitY=1;exitDx=0;exitDy=0;entryX=1.01;entryY=0.076;entryDx=0;entryDy=0;entryPerimeter=0;" edge="1" parent="1" source="Ch-OCV6Q0t6kAxiltGTW-218" target="Ch-OCV6Q0t6kAxiltGTW-216">
          <mxGeometry width="50" height="50" relative="1" as="geometry">
            <mxPoint x="620" y="1060" as="sourcePoint" />
            <mxPoint x="670" y="1010" as="targetPoint" />
          </mxGeometry>
        </mxCell>
        <mxCell id="Ch-OCV6Q0t6kAxiltGTW-233" value="" style="endArrow=classic;html=1;rounded=0;entryX=0.321;entryY=0.007;entryDx=0;entryDy=0;entryPerimeter=0;" edge="1" parent="1" target="Ch-OCV6Q0t6kAxiltGTW-217">
          <mxGeometry width="50" height="50" relative="1" as="geometry">
            <mxPoint x="820" y="928" as="sourcePoint" />
            <mxPoint x="1150" y="1000" as="targetPoint" />
          </mxGeometry>
        </mxCell>
        <mxCell id="Ch-OCV6Q0t6kAxiltGTW-234" value="" style="endArrow=classic;html=1;rounded=0;entryX=0.75;entryY=1;entryDx=0;entryDy=0;" edge="1" parent="1" source="Ch-OCV6Q0t6kAxiltGTW-217" target="Ch-OCV6Q0t6kAxiltGTW-218">
          <mxGeometry width="50" height="50" relative="1" as="geometry">
            <mxPoint x="770" y="1100" as="sourcePoint" />
            <mxPoint x="820" y="1050" as="targetPoint" />
          </mxGeometry>
        </mxCell>
        <mxCell id="Ch-OCV6Q0t6kAxiltGTW-235" value="" style="endArrow=classic;html=1;rounded=0;entryX=1;entryY=0.5;entryDx=0;entryDy=0;" edge="1" parent="1" target="Ch-OCV6Q0t6kAxiltGTW-216">
          <mxGeometry width="50" height="50" relative="1" as="geometry">
            <mxPoint x="920" y="1190" as="sourcePoint" />
            <mxPoint x="740" y="1110" as="targetPoint" />
          </mxGeometry>
        </mxCell>
        <mxCell id="Ch-OCV6Q0t6kAxiltGTW-236" style="edgeStyle=orthogonalEdgeStyle;rounded=0;orthogonalLoop=1;jettySize=auto;html=1;entryX=1.005;entryY=0.57;entryDx=0;entryDy=0;entryPerimeter=0;" edge="1" parent="1" source="Ch-OCV6Q0t6kAxiltGTW-197" target="Ch-OCV6Q0t6kAxiltGTW-217">
          <mxGeometry relative="1" as="geometry" />
        </mxCell>
      </root>
    </mxGraphModel>
  </diagram>
</mxfile>
